<?xml version="1.0" standalone="no"?>
<!DOCTYPE svg PUBLIC "-//W3C//DTD SVG 20010904//EN"
 "http://www.w3.org/TR/2001/REC-SVG-20010904/DTD/svg10.dtd">
<svg version="1.0" xmlns="http://www.w3.org/2000/svg"
 width="395.000000pt" height="395.000000pt" viewBox="0 0 395.000000 395.000000"
 preserveAspectRatio="xMidYMid meet">
<metadata>
Created by potrace 1.11, written by Peter Selinger 2001-2013
</metadata>
<g transform="translate(0.000000,395.000000) scale(0.100000,-0.100000)"
fill="#000000" stroke="none">
<path d="M1819 3946 c-2 -2 -34 -6 -70 -10 -101 -9 -325 -58 -394 -85 -11 -5
-58 -23 -105 -41 -81 -32 -168 -71 -200 -90 -8 -5 -50 -29 -94 -55 -242 -142
-461 -352 -631 -605 -108 -161 -227 -434 -270 -620 -16 -72 -19 -85 -30 -147
-21 -119 -27 -434 -11 -558 39 -299 150 -600 313 -846 331 -498 842 -809 1445
-879 71 -8 382 -6 443 3 91 14 128 21 205 39 496 116 918 410 1204 838 143
214 264 525 302 777 3 21 8 49 10 63 3 14 7 104 9 200 5 206 -7 327 -51 505
-8 33 -16 69 -19 80 -11 49 -70 206 -102 275 -20 41 -37 78 -37 81 -1 4 -27
51 -60 105 -170 285 -378 496 -682 692 -51 33 -289 144 -367 171 -114 40 -293
83 -407 97 -36 5 -397 13 -401 10z"/>
</g>
</svg>
